<svg width="48" height="48" viewBox="0 0 48 48" fill="none" xmlns="http://www.w3.org/2000/svg">
<rect width="48" height="48" rx="10" fill="url(#paint0_linear_26_111)"/>
<path d="M31.188 8.94603C31.2403 8.96806 31.2926 8.99008 31.3464 9.01278C32.668 9.58266 34.2286 10.4803 35.047 11.6678C34.9784 11.6542 34.9784 11.6542 34.9084 11.6404C34.6984 11.5992 34.4883 11.5581 34.2782 11.5171C34.1703 11.4958 34.1703 11.4958 34.0601 11.4741C32.6947 11.208 31.3356 11.1558 29.982 11.5122C29.8887 11.536 29.7955 11.5597 29.6994 11.5842C28.0312 12.0645 26.5298 13.0005 25.265 14.1428C25.1375 14.2579 25.0075 14.3704 24.8755 14.4806C24.3712 14.9026 23.9615 15.3607 23.5502 15.867C23.4743 15.9563 23.398 16.0454 23.3216 16.1343C22.4672 17.1345 21.7857 18.206 21.1233 19.3323C20.3182 20.6995 19.4398 22.0377 18.4048 23.2546C18.3684 23.2975 18.3321 23.3405 18.2946 23.3848C16.3796 25.6345 13.8398 27.6467 10.7771 28.1245C8.52426 28.3226 6.55517 27.7632 4.79761 26.37C4.03298 25.7382 4.03298 25.7382 3.77255 25.3542C3.72051 25.2774 3.62744 25.1228 3.62744 25.1228C3.67406 25.1281 3.86577 25.1315 3.91379 25.137C5.18107 25.272 6.51137 25.355 7.71201 24.8876C7.80186 24.8555 7.89171 24.8234 7.98429 24.7904C9.19328 24.3294 10.2075 23.6212 11.1691 22.788C11.277 22.6991 11.277 22.6991 11.387 22.6084C11.8859 22.192 12.292 21.7343 12.6966 21.2327C12.7677 21.1474 12.8389 21.0623 12.9102 20.9772C13.8577 19.8408 14.613 18.6156 15.3663 17.3525C17.7055 13.4379 20.5094 9.68747 25.2201 8.40503C27.2522 7.89863 29.2811 8.14037 31.188 8.94603Z" fill="#FEFEFE"/>
<path d="M39.7729 15.4959C40.0232 15.7027 40.2703 15.9124 40.5147 16.1256C40.5576 16.1627 40.6005 16.1997 40.6447 16.2379C40.7487 16.33 40.9259 16.4924 40.9469 16.5241C41.0642 16.7017 41.0642 16.7017 41.0642 16.7017C40.7667 16.6639 40.3729 16.5772 40.0876 16.4901C38.3773 15.9902 36.6247 16.1316 34.9975 16.8352C34.8611 16.894 34.8611 16.894 34.7221 16.9539C33.558 17.4862 32.621 18.2289 31.7012 19.0903C31.6468 19.1398 31.5924 19.1894 31.5363 19.2404C30.2152 20.4682 29.238 22.0538 28.2997 23.5602C27.3198 25.1333 26.3033 26.6806 25.1086 28.1109C25.0706 28.1567 25.0326 28.2025 24.9934 28.2496C22.8796 30.7725 20.009 33.0404 16.5642 33.4575C13.6732 33.6423 11.329 32.9393 9.12654 31.1133C8.93036 30.9448 8.73782 30.7733 8.5468 30.5994C8.49478 30.5531 8.44275 30.5069 8.38915 30.4593C8.03327 30.1324 7.74069 29.771 7.50164 29.3551C7.46146 29.2852 7.40015 29.1929 7.40015 29.1929C7.82237 29.2362 8.28368 29.3464 8.67745 29.5009C10.5711 30.2018 12.5628 30.1908 14.4328 29.4113C16.6167 28.4662 18.511 26.909 19.9632 25.0781C19.9994 25.0331 20.0356 24.988 20.073 24.9416C21.0013 23.7847 21.7876 22.5681 22.5328 21.2947C23.1719 20.2041 23.831 19.1485 24.6262 18.1572C24.6832 18.0855 24.7402 18.0138 24.799 17.94C25.1759 17.4753 25.5762 17.0334 25.993 16.6019C26.0571 16.5347 26.1213 16.4676 26.1874 16.3984C29.9643 12.5849 35.5132 12.1206 39.7729 15.4959Z" fill="#FEFEFE"/>
<path d="M41.0256 18.3287C41.0759 18.3405 41.1262 18.3522 41.178 18.3642C42.3696 18.65 43.5942 19.1392 44.5631 19.884C44.8369 20.0701 44.8369 20.0701 44.8369 20.0701C44.7531 20.0872 44.476 20.1514 44.3897 20.1689C40.6199 20.9633 38.1557 23.4331 36.1163 26.4717C35.5957 27.2558 35.11 28.0569 34.6325 28.8662C34.1868 29.6194 33.7165 30.3547 33.2271 31.082C33.1408 31.2105 33.1408 31.2105 33.0528 31.3417C30.5924 34.9566 27.4024 38.2479 22.8558 39.1694C20.3974 39.6037 17.9187 39.0847 15.8261 37.7697C15.6759 37.6675 15.5268 37.5639 15.3789 37.4586C15.2808 37.3897 15.2808 37.3897 15.1807 37.3195C14.7546 37.0055 14.3688 36.6547 13.987 36.2922C13.9398 36.2479 13.8926 36.2036 13.844 36.158C13.5306 35.8543 13.0653 35.2919 12.8904 34.8924C12.9662 34.8924 13.0165 34.8924 13.1305 34.8924C13.4739 34.9444 13.7633 35.0578 14.0825 35.1889C15.8501 35.8783 17.6439 35.976 19.4792 35.4368C19.6202 35.3972 19.6202 35.3972 19.764 35.3569C20.9356 34.9904 22.0571 34.3904 23.0166 33.6482C23.0819 33.5998 23.1472 33.5514 23.2145 33.5015C25.6133 31.6972 27.3685 29.2738 28.8778 26.7503C28.9052 26.7045 28.9326 26.6586 28.9609 26.6114C28.9887 26.5649 29.0166 26.5183 29.0453 26.4703C30.213 24.5182 31.4526 22.6121 33.0663 20.9727C33.1526 20.8817 33.1526 20.8817 33.2406 20.7889C34.431 19.5726 35.9811 18.7429 37.6489 18.3287C37.7226 18.3097 37.7963 18.2906 37.8722 18.271C38.8728 18.0533 40.0339 18.0956 41.0256 18.3287Z" fill="#FEFEFE"/>
<defs>
<linearGradient id="paint0_linear_26_111" x1="45.4175" y1="2.94737" x2="4.21855" y2="46.8454" gradientUnits="userSpaceOnUse">
<stop offset="0.177885" stop-color="#A360BF"/>
<stop offset="1" stop-color="#3F2377"/>
</linearGradient>
</defs>
</svg>
