<svg width="30" height="30" viewBox="0 0 30 30" fill="none" xmlns="http://www.w3.org/2000/svg">
<g clip-path="url(#clip0_114_14)">
<path d="M8 14H13" stroke="currentColor" stroke-width="2" stroke-linecap="round" stroke-linejoin="round"/>
<path d="M8 18H16" stroke="currentColor" stroke-width="2" stroke-linecap="round" stroke-linejoin="round"/>
<path d="M8 10H13" stroke="currentColor" stroke-width="2" stroke-linecap="round" stroke-linejoin="round"/>
<path d="M17 5H7.5C6.50544 5 5.55161 5.39509 4.84835 6.09835C4.14509 6.80161 3.75 7.75544 3.75 8.75V18.75C3.75 19.7446 4.14509 20.6984 4.84835 21.4017C5.55161 22.1049 6.50544 22.5 7.5 22.5H10V26.25L16.25 22.5H22.5C23.4946 22.5 24.4484 22.1049 25.1517 21.4017C25.8549 20.6984 26.25 19.7446 26.25 18.75V15" stroke="currentColor" stroke-width="2" stroke-linecap="round" stroke-linejoin="round"/>
<path d="M25.8462 11.5391L21.9846 13.0615L20.4609 16.923L18.9385 13.0615L15.077 11.5391L18.9385 10.0154L20.4609 6.15381L21.9846 10.0154L25.8462 11.5391Z" fill="currentColor"/>
<path d="M26.8337 11.5846C26.8337 11.8226 26.6867 12.0396 26.464 12.1265C26.464 12.1265 23.5345 12.5931 22.3994 13.801C21.2643 15.0089 20.9587 17.6318 20.9587 17.6318C20.9155 17.7405 20.8407 17.8336 20.7439 17.8993C20.6472 17.9649 20.533 18 20.4161 18C20.2992 18 20.185 17.9649 20.0883 17.8993C19.9915 17.8336 19.9167 17.7405 19.8735 17.6318C19.8735 17.6318 19.4886 14.8555 18.3166 13.6834C17.1445 12.5114 14.3682 12.1265 14.3682 12.1265C14.2595 12.0833 14.1664 12.0085 14.1007 11.9117C14.0351 11.815 14 11.7008 14 11.5839C14 11.467 14.0351 11.3528 14.1007 11.2561C14.1664 11.1593 14.2595 11.0845 14.3682 11.0413C14.3682 11.0413 17.1445 10.6564 18.3166 9.48438C19.4886 8.31235 19.8735 5.53596 19.8735 5.53596C19.9167 5.42733 19.9915 5.33417 20.0883 5.26853C20.185 5.20289 20.2992 5.1678 20.4161 5.1678C20.533 5.1678 20.6472 5.20289 20.7439 5.26853C20.8407 5.33417 20.9155 5.42733 20.9587 5.53596C20.9587 5.53596 21.3436 8.31235 22.5156 9.48438C23.6877 10.6564 26.464 11.0413 26.464 11.0413C26.5727 11.0848 26.666 11.1597 26.7318 11.2565C26.7977 11.3533 26.8331 11.4675 26.8337 11.5846ZM24.6592 11.5846L21.8534 10.4771C21.779 10.4475 21.7115 10.4031 21.6549 10.3465C21.5983 10.2899 21.5539 10.2224 21.5243 10.148L20.4182 7.34075L19.3093 10.148C19.2799 10.2223 19.2356 10.2897 19.1793 10.3463C19.123 10.4028 19.0557 10.4473 18.9816 10.4771L16.173 11.5832L18.9816 12.6921C19.0556 12.7217 19.1228 12.766 19.1791 12.8223C19.2354 12.8786 19.2797 12.9458 19.3093 13.0198L20.4168 15.8284L21.5243 13.0198C21.5541 12.9457 21.5986 12.8784 21.6551 12.8221C21.7117 12.7658 21.7791 12.7215 21.8534 12.6921L24.6592 11.5846ZM28 6.33405C28 6.33405 26.8941 6.59145 26.4094 7.07612C25.9248 7.5608 25.6674 8.66669 25.6674 8.66669C25.6674 8.66669 25.4089 7.56076 24.9239 7.07612C24.439 6.59166 23.3333 6.33405 23.3333 6.33405C23.3333 6.33405 24.4392 6.07666 24.9239 5.59197C25.4089 5.10693 25.666 4 25.666 4C25.666 4 25.9235 5.10571 26.408 5.59057C26.893 6.07594 28 6.33405 28 6.33405Z" fill="currentColor"/>
</g>
<defs>
<clipPath id="clip0_114_14">
<rect width="30" height="30" fill="white"/>
</clipPath>
</defs>
</svg>
